# xmcd CD database file
#
# Track frame offsets:
#	150
#	39493
#	74961
#	105133
#	124260
#	170175
#
# Disc length: 2988 seconds
#
# Revision: 0
# Processed by: cddbd v1.5.1PL0 Copyright (c) Steve Scherf et al.
# Submitted via: CDex 1.51
#
DISCID=550baa06
DTITLE=Gwincinski-Richter-Skolik - Jupiter Urizen Wernyhora Trungpa
DYEAR=1998
DGENRE=Jazz
TTITLE0=Noc Lipcowa
TTITLE1=Emersen w Kalahari
TTITLE2=Ufologia Trumn
TTITLE3=Poeci Wody
TTITLE4=El Topo
TTITLE5=Tulku
EXTD=YEAR: 1998
EXTT0=
EXTT1=
EXTT2=
EXTT3=
EXTT4=
EXTT5=
PLAYORDER=
